<?xml version="1.0" encoding="UTF-8" standalone="no"?>
<!DOCTYPE svg PUBLIC "-//W3C//DTD SVG 1.1//EN"
 "http://www.w3.org/Graphics/SVG/1.1/DTD/svg11.dtd">
<!-- Generated by graphviz version 2.49.3 (20211023.0002)
 -->
<!-- Pages: 1 -->
<svg width="248pt" height="181pt"
 viewBox="0.00 0.00 247.70 180.79" xmlns="http://www.w3.org/2000/svg" xmlns:xlink="http://www.w3.org/1999/xlink">
<g id="graph0" class="graph" transform="scale(1 1) rotate(0) translate(4 176.79)">
<polygon fill="white" stroke="transparent" points="-4,4 -4,-176.79 243.7,-176.79 243.7,4 -4,4"/>
<!-- water_value -->
<g id="node1" class="node">
<title>water_value</title>
<polygon fill="lightgray" stroke="black" points="60,-172.79 0,-172.79 0,-154.79 60,-154.79 60,-172.79"/>
<text text-anchor="middle" x="30" y="-161.59" font-family="Times,serif" font-size="9.00">water_value</text>
</g>
<!-- air_value -->
<g id="node2" class="node">
<title>air_value</title>
<polygon fill="lightgray" stroke="black" points="128,-172.79 78,-172.79 78,-154.79 128,-154.79 128,-172.79"/>
<text text-anchor="middle" x="103" y="-161.59" font-family="Times,serif" font-size="9.00">air_value</text>
</g>
<!-- is_dangerous_drift -->
<g id="node5" class="node">
<title>is_dangerous_drift</title>
<ellipse fill="lightblue" stroke="black" cx="103" cy="-59.4" rx="59.29" ry="59.29"/>
<text text-anchor="middle" x="103" y="-57.2" font-family="Times,serif" font-size="9.00">is_dangerous_drift</text>
</g>
<!-- air_value&#45;&gt;is_dangerous_drift -->
<g id="edge3" class="edge">
<title>air_value&#45;&gt;is_dangerous_drift</title>
<path fill="none" stroke="red" stroke-width="0.17" d="M103,-154.76C103,-148.61 103,-139.48 103,-129.28"/>
<polygon fill="red" stroke="red" stroke-width="0.17" points="106.5,-129.24 103,-119.24 99.5,-129.24 106.5,-129.24"/>
</g>
<!-- amoni_value -->
<g id="node3" class="node">
<title>amoni_value</title>
<polygon fill="lightgray" stroke="black" points="225.5,-172.79 162.5,-172.79 162.5,-154.79 225.5,-154.79 225.5,-172.79"/>
<text text-anchor="middle" x="194" y="-161.59" font-family="Times,serif" font-size="9.00">amoni_value</text>
</g>
<!-- is_drift -->
<g id="node4" class="node">
<title>is_drift</title>
<ellipse fill="lightblue" stroke="black" cx="210" cy="-59.4" rx="29.9" ry="29.9"/>
<text text-anchor="middle" x="210" y="-57.2" font-family="Times,serif" font-size="9.00">is_drift</text>
</g>
<!-- amoni_value&#45;&gt;is_drift -->
<g id="edge1" class="edge">
<title>amoni_value&#45;&gt;is_drift</title>
<path fill="none" stroke="green" stroke-width="0.72" d="M195.26,-154.76C197.12,-142.82 200.75,-119.61 203.94,-99.2"/>
<polygon fill="green" stroke="green" stroke-width="0.72" points="207.42,-99.58 205.51,-89.16 200.5,-98.5 207.42,-99.58"/>
</g>
<!-- amoni_value&#45;&gt;is_dangerous_drift -->
<g id="edge2" class="edge">
<title>amoni_value&#45;&gt;is_dangerous_drift</title>
<path fill="none" stroke="green" stroke-width="0.94" d="M186.86,-154.76C178.43,-145.27 163.68,-128.67 148.87,-112.01"/>
<polygon fill="green" stroke="green" stroke-width="0.94" points="151.35,-109.53 142.09,-104.38 146.11,-114.18 151.35,-109.53"/>
</g>
</g>
</svg>
