<?xml version="1.0" encoding="UTF-8" standalone="no"?>
<!DOCTYPE svg PUBLIC "-//W3C//DTD SVG 1.1//EN"
 "http://www.w3.org/Graphics/SVG/1.1/DTD/svg11.dtd">
<!-- Generated by graphviz version 2.49.3 (20211023.0002)
 -->
<!-- Pages: 1 -->
<svg width="298pt" height="181pt"
 viewBox="0.00 0.00 298.40 180.79" xmlns="http://www.w3.org/2000/svg" xmlns:xlink="http://www.w3.org/1999/xlink">
<g id="graph0" class="graph" transform="scale(1 1) rotate(0) translate(4 176.79)">
<polygon fill="white" stroke="transparent" points="-4,4 -4,-176.79 294.4,-176.79 294.4,4 -4,4"/>
<!-- water_value -->
<g id="node1" class="node">
<title>water_value</title>
<polygon fill="lightgray" stroke="black" points="60,-172.79 0,-172.79 0,-154.79 60,-154.79 60,-172.79"/>
<text text-anchor="middle" x="30" y="-161.59" font-family="Times,serif" font-size="9.00">water_value</text>
</g>
<!-- air_value -->
<g id="node2" class="node">
<title>air_value</title>
<polygon fill="lightgray" stroke="black" points="128,-172.79 78,-172.79 78,-154.79 128,-154.79 128,-172.79"/>
<text text-anchor="middle" x="103" y="-161.59" font-family="Times,serif" font-size="9.00">air_value</text>
</g>
<!-- amoni_value -->
<g id="node3" class="node">
<title>amoni_value</title>
<polygon fill="lightgray" stroke="black" points="209.5,-172.79 146.5,-172.79 146.5,-154.79 209.5,-154.79 209.5,-172.79"/>
<text text-anchor="middle" x="178" y="-161.59" font-family="Times,serif" font-size="9.00">amoni_value</text>
</g>
<!-- is_drift -->
<g id="node4" class="node">
<title>is_drift</title>
<ellipse fill="lightblue" stroke="black" cx="124" cy="-59.4" rx="29.9" ry="29.9"/>
<text text-anchor="middle" x="124" y="-57.2" font-family="Times,serif" font-size="9.00">is_drift</text>
</g>
<!-- amoni_value&#45;&gt;is_drift -->
<g id="edge1" class="edge">
<title>amoni_value&#45;&gt;is_drift</title>
<path fill="none" stroke="green" stroke-width="1.07" d="M173.76,-154.76C167.05,-142.03 153.57,-116.48 142.34,-95.17"/>
<polygon fill="green" stroke="green" stroke-width="1.07" points="145.29,-93.26 137.53,-86.05 139.1,-96.52 145.29,-93.26"/>
</g>
<!-- is_dangerous_drift -->
<g id="node5" class="node">
<title>is_dangerous_drift</title>
<ellipse fill="lightblue" stroke="black" cx="231" cy="-59.4" rx="59.29" ry="59.29"/>
<text text-anchor="middle" x="231" y="-57.2" font-family="Times,serif" font-size="9.00">is_dangerous_drift</text>
</g>
<!-- amoni_value&#45;&gt;is_dangerous_drift -->
<g id="edge2" class="edge">
<title>amoni_value&#45;&gt;is_dangerous_drift</title>
<path fill="none" stroke="green" stroke-width="0.92" d="M182.16,-154.76C186.08,-147.17 192.37,-135.04 199.13,-121.96"/>
<polygon fill="green" stroke="green" stroke-width="0.92" points="202.39,-123.29 203.87,-112.8 196.17,-120.08 202.39,-123.29"/>
</g>
</g>
</svg>
