<?xml version="1.0" encoding="UTF-8" standalone="no"?>
<!DOCTYPE svg PUBLIC "-//W3C//DTD SVG 1.1//EN"
 "http://www.w3.org/Graphics/SVG/1.1/DTD/svg11.dtd">
<!-- Generated by graphviz version 2.43.0 (0)
 -->
<!-- Title: %3 Pages: 1 -->
<svg width="347pt" height="206pt"
 viewBox="0.00 0.00 347.12 206.25" xmlns="http://www.w3.org/2000/svg" xmlns:xlink="http://www.w3.org/1999/xlink">
<g id="graph0" class="graph" transform="scale(1 1) rotate(0) translate(4 202.25)">
<title>%3</title>
<polygon fill="white" stroke="transparent" points="-4,4 -4,-202.25 343.12,-202.25 343.12,4 -4,4"/>
<!-- water_value -->
<g id="node1" class="node">
<title>water_value</title>
<polygon fill="lightgray" stroke="black" points="72,-198.25 0,-198.25 0,-180.25 72,-180.25 72,-198.25"/>
<text text-anchor="middle" x="36" y="-187.05" font-family="Times,serif" font-size="9.00">water_value</text>
</g>
<!-- air_value -->
<g id="node2" class="node">
<title>air_value</title>
<polygon fill="lightgray" stroke="black" points="149.5,-198.25 90.5,-198.25 90.5,-180.25 149.5,-180.25 149.5,-198.25"/>
<text text-anchor="middle" x="120" y="-187.05" font-family="Times,serif" font-size="9.00">air_value</text>
</g>
<!-- amoni_value -->
<g id="node3" class="node">
<title>amoni_value</title>
<polygon fill="lightgray" stroke="black" points="242,-198.25 168,-198.25 168,-180.25 242,-180.25 242,-198.25"/>
<text text-anchor="middle" x="205" y="-187.05" font-family="Times,serif" font-size="9.00">amoni_value</text>
</g>
<!-- is_drift -->
<g id="node4" class="node">
<title>is_drift</title>
<ellipse fill="lightblue" stroke="black" cx="142" cy="-72.12" rx="34.8" ry="34.8"/>
<text text-anchor="middle" x="142" y="-69.92" font-family="Times,serif" font-size="9.00">is_drift</text>
</g>
<!-- amoni_value&#45;&gt;is_drift -->
<g id="edge1" class="edge">
<title>amoni_value&#45;&gt;is_drift</title>
<path fill="none" stroke="green" stroke-width="0.89" d="M200.47,-179.97C192.76,-165.89 176.64,-136.43 163.28,-112"/>
<polygon fill="green" stroke="green" stroke-width="0.89" points="166.18,-110.02 158.31,-102.93 160.04,-113.38 166.18,-110.02"/>
</g>
<!-- is_dangerous_drift -->
<g id="node5" class="node">
<title>is_dangerous_drift</title>
<ellipse fill="lightblue" stroke="black" cx="267" cy="-72.12" rx="72.25" ry="72.25"/>
<text text-anchor="middle" x="267" y="-69.92" font-family="Times,serif" font-size="9.00">is_dangerous_drift</text>
</g>
<!-- amoni_value&#45;&gt;is_dangerous_drift -->
<g id="edge2" class="edge">
<title>amoni_value&#45;&gt;is_dangerous_drift</title>
<path fill="none" stroke="green" stroke-width="1.07" d="M209.46,-179.97C213.76,-171.99 220.72,-159.06 228.34,-144.91"/>
<polygon fill="green" stroke="green" stroke-width="1.07" points="231.5,-146.43 233.16,-135.97 225.33,-143.11 231.5,-146.43"/>
</g>
</g>
</svg>
