<?xml version="1.0" encoding="UTF-8" standalone="no"?>
<!DOCTYPE svg PUBLIC "-//W3C//DTD SVG 1.1//EN"
 "http://www.w3.org/Graphics/SVG/1.1/DTD/svg11.dtd">
<!-- Generated by graphviz version 2.43.0 (0)
 -->
<!-- Title: %3 Pages: 1 -->
<svg width="240pt" height="283pt"
 viewBox="0.00 0.00 239.77 283.26" xmlns="http://www.w3.org/2000/svg" xmlns:xlink="http://www.w3.org/1999/xlink">
<g id="graph0" class="graph" transform="scale(1 1) rotate(0) translate(4 279.26)">
<title>%3</title>
<polygon fill="white" stroke="transparent" points="-4,4 -4,-279.26 235.77,-279.26 235.77,4 -4,4"/>
<!-- water_value -->
<g id="node1" class="node">
<title>water_value</title>
<polygon fill="lightgray" stroke="black" points="79.12,-275.26 7.12,-275.26 7.12,-257.26 79.12,-257.26 79.12,-275.26"/>
<text text-anchor="middle" x="43.12" y="-264.06" font-family="Times,serif" font-size="9.00">water_value</text>
</g>
<!-- air_value -->
<g id="node2" class="node">
<title>air_value</title>
<polygon fill="lightgray" stroke="black" points="158.62,-209.76 99.62,-209.76 99.62,-191.76 158.62,-191.76 158.62,-209.76"/>
<text text-anchor="middle" x="129.12" y="-198.56" font-family="Times,serif" font-size="9.00">air_value</text>
</g>
<!-- is_drift -->
<g id="node4" class="node">
<title>is_drift</title>
<ellipse fill="lightblue" stroke="black" cx="197.12" cy="-72.12" rx="34.8" ry="34.8"/>
<text text-anchor="middle" x="197.12" y="-69.92" font-family="Times,serif" font-size="9.00">is_drift</text>
</g>
<!-- air_value&#45;&gt;is_drift -->
<g id="edge1" class="edge">
<title>air_value&#45;&gt;is_drift</title>
<path fill="none" stroke="green" stroke-width="0.11" d="M133.59,-191.45C142.08,-175.63 161.07,-140.27 176.09,-112.3"/>
<polygon fill="green" stroke="green" stroke-width="0.11" points="179.36,-113.6 181.01,-103.13 173.2,-110.29 179.36,-113.6"/>
</g>
<!-- is_dangerous_drift -->
<g id="node5" class="node">
<title>is_dangerous_drift</title>
<ellipse fill="lightblue" stroke="black" cx="72.12" cy="-72.12" rx="72.25" ry="72.25"/>
<text text-anchor="middle" x="72.12" y="-69.92" font-family="Times,serif" font-size="9.00">is_dangerous_drift</text>
</g>
<!-- air_value&#45;&gt;is_dangerous_drift -->
<g id="edge2" class="edge">
<title>air_value&#45;&gt;is_dangerous_drift</title>
<path fill="none" stroke="green" stroke-width="0.28" d="M125.38,-191.45C121.1,-181.94 113.64,-165.36 105.64,-147.57"/>
<polygon fill="green" stroke="green" stroke-width="0.28" points="108.71,-145.87 101.41,-138.19 102.33,-148.75 108.71,-145.87"/>
</g>
<!-- amoni_value -->
<g id="node3" class="node">
<title>amoni_value</title>
<polygon fill="lightgray" stroke="black" points="171.12,-275.26 97.12,-275.26 97.12,-257.26 171.12,-257.26 171.12,-275.26"/>
<text text-anchor="middle" x="134.12" y="-264.06" font-family="Times,serif" font-size="9.00">amoni_value</text>
</g>
<!-- amoni_value&#45;&gt;is_dangerous_drift -->
<g id="edge3" class="edge">
<title>amoni_value&#45;&gt;is_dangerous_drift</title>
<path fill="none" stroke="green" stroke-width="0.33" d="M122.89,-257.23C112.76,-249.32 98.38,-236.26 91.12,-221.26 81.23,-200.82 75.88,-177.03 73.13,-154.57"/>
<polygon fill="green" stroke="green" stroke-width="0.33" points="76.58,-153.93 72.04,-144.36 69.62,-154.67 76.58,-153.93"/>
</g>
<!-- 12 -->
<g id="node6" class="node">
<title>12</title>
<ellipse fill="white" stroke="black" cx="197.12" cy="-200.76" rx="20.51" ry="20.51"/>
<text text-anchor="middle" x="197.12" y="-198.56" font-family="Times,serif" font-size="9.00">12</text>
</g>
<!-- amoni_value&#45;&gt;12 -->
<g id="edge4" class="edge">
<title>amoni_value&#45;&gt;12</title>
<path fill="none" stroke="green" stroke-width="0.4" d="M142.1,-257.22C150.47,-248.79 163.98,-235.17 175.51,-223.54"/>
<polygon fill="green" stroke="green" stroke-width="0.4" points="178.18,-225.82 182.74,-216.26 173.21,-220.89 178.18,-225.82"/>
</g>
<!-- 12&#45;&gt;is_drift -->
<g id="edge5" class="edge">
<title>12&#45;&gt;is_drift</title>
<path fill="none" stroke="green" stroke-width="0.87" d="M197.12,-180.25C197.12,-163.55 197.12,-138.89 197.12,-117.44"/>
<polygon fill="green" stroke="green" stroke-width="0.87" points="200.62,-117.21 197.12,-107.21 193.62,-117.21 200.62,-117.21"/>
</g>
<!-- 12&#45;&gt;is_dangerous_drift -->
<g id="edge6" class="edge">
<title>12&#45;&gt;is_dangerous_drift</title>
<path fill="none" stroke="green" stroke-width="0.34" d="M182.79,-185.23C169.65,-171.92 149.31,-151.32 129.64,-131.39"/>
<polygon fill="green" stroke="green" stroke-width="0.34" points="131.95,-128.75 122.43,-124.09 126.97,-133.66 131.95,-128.75"/>
</g>
</g>
</svg>
