<?xml version="1.0" encoding="UTF-8" standalone="no"?>
<!DOCTYPE svg PUBLIC "-//W3C//DTD SVG 1.1//EN"
 "http://www.w3.org/Graphics/SVG/1.1/DTD/svg11.dtd">
<!-- Generated by graphviz version 2.43.0 (0)
 -->
<!-- Title: %3 Pages: 1 -->
<svg width="292pt" height="206pt"
 viewBox="0.00 0.00 292.12 206.25" xmlns="http://www.w3.org/2000/svg" xmlns:xlink="http://www.w3.org/1999/xlink">
<g id="graph0" class="graph" transform="scale(1 1) rotate(0) translate(4 202.25)">
<title>%3</title>
<polygon fill="white" stroke="transparent" points="-4,4 -4,-202.25 288.12,-202.25 288.12,4 -4,4"/>
<!-- water_value -->
<g id="node1" class="node">
<title>water_value</title>
<polygon fill="lightgray" stroke="black" points="72,-198.25 0,-198.25 0,-180.25 72,-180.25 72,-198.25"/>
<text text-anchor="middle" x="36" y="-187.05" font-family="Times,serif" font-size="9.00">water_value</text>
</g>
<!-- is_drift -->
<g id="node4" class="node">
<title>is_drift</title>
<ellipse fill="lightblue" stroke="black" cx="87" cy="-72.12" rx="34.8" ry="34.8"/>
<text text-anchor="middle" x="87" y="-69.92" font-family="Times,serif" font-size="9.00">is_drift</text>
</g>
<!-- water_value&#45;&gt;is_drift -->
<g id="edge1" class="edge">
<title>water_value&#45;&gt;is_drift</title>
<path fill="none" stroke="green" stroke-width="0.11" d="M39.67,-179.97C45.78,-166.18 58.42,-137.63 69.11,-113.52"/>
<polygon fill="green" stroke="green" stroke-width="0.11" points="72.39,-114.75 73.24,-104.19 65.99,-111.92 72.39,-114.75"/>
</g>
<!-- air_value -->
<g id="node2" class="node">
<title>air_value</title>
<polygon fill="lightgray" stroke="black" points="241.5,-198.25 182.5,-198.25 182.5,-180.25 241.5,-180.25 241.5,-198.25"/>
<text text-anchor="middle" x="212" y="-187.05" font-family="Times,serif" font-size="9.00">air_value</text>
</g>
<!-- air_value&#45;&gt;is_drift -->
<g id="edge2" class="edge">
<title>air_value&#45;&gt;is_drift</title>
<path fill="none" stroke="green" stroke-width="0.14" d="M190.46,-180.2C172.93,-172.85 148.33,-160.63 131,-144.25 121.51,-135.28 113.25,-123.83 106.54,-112.75"/>
<polygon fill="green" stroke="green" stroke-width="0.14" points="109.52,-110.92 101.49,-104 103.46,-114.41 109.52,-110.92"/>
</g>
<!-- is_dangerous_drift -->
<g id="node5" class="node">
<title>is_dangerous_drift</title>
<ellipse fill="lightblue" stroke="black" cx="212" cy="-72.12" rx="72.25" ry="72.25"/>
<text text-anchor="middle" x="212" y="-69.92" font-family="Times,serif" font-size="9.00">is_dangerous_drift</text>
</g>
<!-- air_value&#45;&gt;is_dangerous_drift -->
<g id="edge3" class="edge">
<title>air_value&#45;&gt;is_dangerous_drift</title>
<path fill="none" stroke="green" stroke-width="0.13" d="M212,-179.97C212,-173.84 212,-164.78 212,-154.5"/>
<polygon fill="green" stroke="green" stroke-width="0.13" points="215.5,-154.32 212,-144.32 208.5,-154.32 215.5,-154.32"/>
</g>
<!-- amoni_value -->
<g id="node3" class="node">
<title>amoni_value</title>
<polygon fill="lightgray" stroke="black" points="164,-198.25 90,-198.25 90,-180.25 164,-180.25 164,-198.25"/>
<text text-anchor="middle" x="127" y="-187.05" font-family="Times,serif" font-size="9.00">amoni_value</text>
</g>
<!-- amoni_value&#45;&gt;is_drift -->
<g id="edge4" class="edge">
<title>amoni_value&#45;&gt;is_drift</title>
<path fill="none" stroke="green" stroke-width="0.44" d="M124.12,-179.97C119.42,-166.42 109.76,-138.63 101.48,-114.79"/>
<polygon fill="green" stroke="green" stroke-width="0.44" points="104.74,-113.51 98.15,-105.21 98.12,-115.81 104.74,-113.51"/>
</g>
<!-- amoni_value&#45;&gt;is_dangerous_drift -->
<g id="edge5" class="edge">
<title>amoni_value&#45;&gt;is_dangerous_drift</title>
<path fill="none" stroke="green" stroke-width="0.21" d="M133.11,-179.97C139.85,-170.84 151.36,-155.25 163.54,-138.76"/>
<polygon fill="green" stroke="green" stroke-width="0.21" points="166.43,-140.74 169.55,-130.62 160.8,-136.58 166.43,-140.74"/>
</g>
</g>
</svg>
